<svg viewBox="0 0 32 32" xmlns="http://www.w3.org/2000/svg"><g transform="scale(1.6)"><path fill="none" d="M0 0h20v20H0Z"/><g><path d="M11 12.25h3v1h-3Z"/><path d="M11 10.75h3v1h-3Z"/><path d="M6 7.27h3v1H6Z"/><path d="M15 4H5c-.55 0-1 .45-1 1v10c0 .55.45 1 1 1h10c.55 0 1-.45 1-1V5c0-.55-.45-1-1-1Zm0 11H5V5h10v10Z"/><path d="M7.5 14l1 0 0-1.5 1.5 0 0-1 -1.5 0 0-1.5 -1 0 0 1.5 -1.5 0 0 1 1.5 0Z"/><path d="M11.44 9.54l1.06-1.07 1.06 1.07 .71-.71 -1.06-1.06 1.06-1.06 -.71-.71 -1.06 1.06L11.44 6l-.71.71 1.06 1.06 -1.06 1.06Z"/></g></g></svg>