<svg viewBox="0 0 64 64" xmlns="http://www.w3.org/2000/svg" xmlns:xlink="http://www.w3.org/1999/xlink"><defs><path d="M0 0h24v24H0V0Z" id="a"/></defs><g transform="scale(2.66666)"><g fill="none"><use xlink:href="#a"/><use opacity=".87" xlink:href="#a"/></g><path d="M4 13c.55 0 1-.45 1-1s-.45-1-1-1 -1 .45-1 1 .45 1 1 1Zm0 4c.55 0 1-.45 1-1s-.45-1-1-1 -1 .45-1 1 .45 1 1 1Zm0-8c.55 0 1-.45 1-1s-.45-1-1-1 -1 .45-1 1 .45 1 1 1Zm4 4h12c.55 0 1-.45 1-1s-.45-1-1-1H8c-.55 0-1 .45-1 1s.45 1 1 1Zm0 4h12c.55 0 1-.45 1-1s-.45-1-1-1H8c-.55 0-1 .45-1 1s.45 1 1 1ZM7 8c0 .55.45 1 1 1h12c.55 0 1-.45 1-1s-.45-1-1-1H8c-.55 0-1 .45-1 1Zm-3 5c.55 0 1-.45 1-1s-.45-1-1-1 -1 .45-1 1 .45 1 1 1Zm0 4c.55 0 1-.45 1-1s-.45-1-1-1 -1 .45-1 1 .45 1 1 1Zm0-8c.55 0 1-.45 1-1s-.45-1-1-1 -1 .45-1 1 .45 1 1 1Zm4 4h12c.55 0 1-.45 1-1s-.45-1-1-1H8c-.55 0-1 .45-1 1s.45 1 1 1Zm0 4h12c.55 0 1-.45 1-1s-.45-1-1-1H8c-.55 0-1 .45-1 1s.45 1 1 1ZM7 8c0 .55.45 1 1 1h12c.55 0 1-.45 1-1s-.45-1-1-1H8c-.55 0-1 .45-1 1Z"/></g></svg>