<svg viewBox="0 0 64 64" xmlns="http://www.w3.org/2000/svg"><g transform="scale(2.66666)"><path fill="none" d="M0 0h24v24H0V0Z"/><path d="M7 15h7v2H7Zm0-4h10v2H7Zm0-4h10v2H7Zm12-4h-4.18C14.4 1.84 13.3 1 12 1c-1.3 0-2.4.84-2.82 2H5c-.14 0-.27.01-.4.04 -.39.08-.74.28-1.01.55 -.18.18-.33.4-.43.64 -.1.23-.16.49-.16.77v14c0 .27.06.54.16.78s.25.45.43.64c.27.27.62.47 1.01.55 .13.02.26.03.4.03h14c1.1 0 2-.9 2-2V5c0-1.1-.9-2-2-2Zm-7-.25c.41 0 .75.34.75.75s-.34.75-.75.75 -.75-.34-.75-.75 .34-.75.75-.75ZM19 19H5V5h14v14Z"/></g></svg>