<?xml version="1.0" encoding="iso-8859-1"?>
<!-- Generator: Adobe Illustrator 19.0.0, SVG Export Plug-In . SVG Version: 6.00 Build 0)  -->
<svg version="1.1" id="Layer_1" xmlns="http://www.w3.org/2000/svg" xmlns:xlink="http://www.w3.org/1999/xlink" x="0px" y="0px"
	 viewBox="0 0 512 512" style="enable-background:new 0 0 512 512;" xml:space="preserve">
<g>
	<g>
		<path d="M463.745,72.334l24.128-24.128l-24.079-24.079l-24.126,24.126V0h-34.053v82.307l-30.565,30.565
			c-39.746-34.217-91.471-54.908-148.032-54.908C101.639,57.963,0,159.603,0,284.982S101.639,512,227.018,512
			s227.018-101.639,227.018-227.018c0-56.56-20.69-108.285-54.908-148.033l30.563-30.563H512V72.334H463.745z M419.984,284.982
			c0,51.543-20.072,100.002-56.518,136.447c-36.446,36.447-84.904,56.518-136.447,56.518c-51.543,0-100.002-20.072-136.447-56.518
			c-36.447-36.446-56.518-84.904-56.518-136.447c0-51.543,20.072-100.002,56.518-136.447
			c36.445-36.445,84.904-56.518,136.447-56.518c45.825,0,89.202,15.878,123.877,45.009l-24.199,24.199
			c-27.261-21.986-61.929-35.156-99.678-35.156c-87.765,0-158.913,71.148-158.913,158.913s71.148,158.913,158.913,158.913
			s158.913-71.148,158.913-158.913c0-37.749-13.172-72.417-35.156-99.678l24.199-24.199
			C404.106,195.779,419.984,239.157,419.984,284.982z M255.396,280.683l21.929-21.929c4.11,7.85,6.448,16.769,6.448,26.227
			c0,31.294-25.46,56.755-56.755,56.755c-31.294,0-56.755-25.46-56.755-56.755c0-31.294,25.46-56.755,56.755-56.755
			c9.459,0,18.376,2.338,26.227,6.448l-21.929,21.929l-4.299,28.377L255.396,280.683z M278.025,209.897
			c-14.548-9.914-32.111-15.722-51.006-15.722c-50.071,0-90.807,40.736-90.807,90.807c0,50.071,40.736,90.807,90.807,90.807
			c50.071,0,90.807-40.736,90.807-90.807c0-18.896-5.807-36.458-15.722-51.006l24.428-24.428
			c16.44,21.595,25.347,47.828,25.347,75.435c0,33.351-12.988,64.707-36.57,88.29c-23.583,23.583-54.937,36.57-88.29,36.57
			c-33.352,0-64.707-12.988-88.29-36.57c-23.583-23.583-36.57-54.937-36.57-88.29c0-33.352,12.988-64.707,36.57-88.29
			c23.583-23.583,54.937-36.57,88.29-36.57c27.607,0,53.84,8.907,75.435,25.347L278.025,209.897z"/>
	</g>
</g>
<g>
</g>
<g>
</g>
<g>
</g>
<g>
</g>
<g>
</g>
<g>
</g>
<g>
</g>
<g>
</g>
<g>
</g>
<g>
</g>
<g>
</g>
<g>
</g>
<g>
</g>
<g>
</g>
<g>
</g>
</svg>
